<svg xmlns="http://www.w3.org/2000/svg" viewBox="0 0 41.4 55.2">
  <defs>
    <style>
      .cls-1 {
        isolation: isolate;
      }

      .cls-2 {
        fill: #00c3ff;
      }

      .cls-3 {
        fill: #ffce00;
      }

      .cls-4, .cls-8 {
        fill: none;
      }

      .cls-5 {
        opacity: 0.25;
        mix-blend-mode: multiply;
      }

      .cls-6 {
        mix-blend-mode: overlay;
      }

      .cls-7 {
        fill: #fff;
      }

      .cls-8 {
        stroke: #000;
        stroke-linecap: round;
        stroke-linejoin: round;
        stroke-width: 2px;
      }
    </style>
  </defs>
  <title>Icon_1</title>
  <g class="cls-1">
    <g id="Layer_2" data-name="Layer 2">
      <g id="Color">
        <g>
          <circle class="cls-2" cx="24.8" cy="13.3" r="12.3"/>
          <path class="cls-2" d="M40.4,41.1V52.3a1.8,1.8,0,0,1-1.9,1.9H11a1.8,1.8,0,0,1-1.8-1.9v-2h1V45.1h5.2v-4H10.2V35.9h-.1a15.6,15.6,0,0,1,30.3,5.2Z"/>
        </g>
        <polygon class="cls-3" points="15.4 41.1 15.4 45.1 10.2 45.1 10.2 50.3 6.2 50.3 6.2 45.1 1 45.1 1 41.1 6.2 41.1 6.2 35.9 10.2 35.9 10.2 41.1 15.4 41.1"/>
        <g>
          <line class="cls-4" x1="16.1" y1="50.3" x2="25.7" y2="50.3"/>
          <line class="cls-4" x1="29.4" y1="50.3" x2="33.4" y2="50.3"/>
        </g>
      </g>
      <g id="Shadow" class="cls-5">
        <path d="M33.5,54.2h5a1.8,1.8,0,0,0,1.9-1.9V41.1A15.7,15.7,0,0,0,24.8,25.5l-2.6.2a16.2,16.2,0,0,1,8.6,4.4,15.6,15.6,0,0,1,4.6,11V52.3A1.8,1.8,0,0,1,33.5,54.2Z"/>
        <path d="M32,13.3a12.2,12.2,0,0,1-9.7,12l2.5.2A12.3,12.3,0,0,0,24.8,1a10.1,10.1,0,0,0-2.5.3A12.1,12.1,0,0,1,32,13.3Z"/>
      </g>
      <g id="Highlight" class="cls-6">
        <path class="cls-7" d="M24.8,25.5l2.5-.2a12.3,12.3,0,0,1-9.8-12,12.2,12.2,0,0,1,9.8-12A10.7,10.7,0,0,0,24.8,1a12.3,12.3,0,1,0,0,24.5Z"/>
        <path class="cls-7" d="M13.9,41.1a17.3,17.3,0,0,1,5.8-11.9,16.6,16.6,0,0,1,7.5-3.5l-2.4-.2A15.6,15.6,0,0,0,10.1,35.9H6.2v5.2h7.7Z"/>
        <rect class="cls-7" x="1" y="41.1" width="5" height="4.01"/>
        <path class="cls-7" d="M9.2,52.3A1.8,1.8,0,0,0,11,54.2h5a1.8,1.8,0,0,1-1.8-1.9L14,45.7l-2.8-.6h-5v5.2h3Z"/>
      </g>
      <g id="Line">
        <g>
          <circle class="cls-8" cx="24.8" cy="13.3" r="12.3"/>
          <path class="cls-8" d="M40.4,41.1V52.3a1.8,1.8,0,0,1-1.9,1.9H11a1.8,1.8,0,0,1-1.8-1.9v-2h1V45.1h5.2v-4H10.2V35.9h-.1a15.6,15.6,0,0,1,30.3,5.2Z"/>
        </g>
        <polygon class="cls-8" points="15.4 41.1 15.4 45.1 10.2 45.1 10.2 50.3 6.2 50.3 6.2 45.1 1 45.1 1 41.1 6.2 41.1 6.2 35.9 10.2 35.9 10.2 41.1 15.4 41.1"/>
        <g>
          <line class="cls-8" x1="16.1" y1="50.3" x2="25.7" y2="50.3"/>
          <line class="cls-8" x1="29.4" y1="50.3" x2="33.4" y2="50.3"/>
        </g>
      </g>
    </g>
  </g>
</svg>
