<svg xmlns="http://www.w3.org/2000/svg" viewBox="0 0 38.5 56.4">
  <defs>
    <style>
      .cls-1 {
        isolation: isolate;
      }

      .cls-2 {
        fill: #d2f7ff;
      }

      .cls-3 {
        fill: #07ff00;
      }

      .cls-4, .cls-9 {
        fill: none;
      }

      .cls-5 {
        fill: #ffce00;
      }

      .cls-6 {
        opacity: 0.25;
        mix-blend-mode: multiply;
      }

      .cls-7 {
        mix-blend-mode: overlay;
      }

      .cls-8 {
        fill: #fff;
      }

      .cls-9 {
        stroke: #000;
        stroke-linecap: round;
        stroke-linejoin: round;
        stroke-width: 2px;
      }
    </style>
  </defs>
  <title>Icon_11</title>
  <g class="cls-1">
    <g id="Layer_2" data-name="Layer 2">
      <g id="Color">
        <g>
          <path class="cls-2" d="M31.5,27.5a3,3,0,0,0-1,2.2,3.3,3.3,0,0,0,1,2.3,3.6,3.6,0,0,0,2.3.8c0,.1.1.1.2.1h.6v6.9H3.4V24.1A15.6,15.6,0,0,1,19,8.5a14.9,14.9,0,0,1,4.3.6A16,16,0,0,1,30.1,13l1,1.2.4,9.8h3.1v2.7H34a3.7,3.7,0,0,0-2.1.6Z"/>
          <path class="cls-3" d="M34.8,47.3H3.2a2.2,2.2,0,0,1-2-3.1l2.1-4.5H34.7l2.1,4.5A2.2,2.2,0,0,1,34.8,47.3Z"/>
          <path class="cls-3" d="M23.3,5.3V9.1A14.9,14.9,0,0,0,19,8.5a14.9,14.9,0,0,0-4.3.6V5.3A4.3,4.3,0,0,1,19,1a4.4,4.4,0,0,1,3.1,1.3A4.1,4.1,0,0,1,23.3,5.3Z"/>
          <path class="cls-2" d="M27.1,47.3a8.1,8.1,0,0,1-16.2,0Z"/>
          <g>
            <line class="cls-4" x1="7.4" y1="43.5" x2="16.2" y2="43.5"/>
            <line class="cls-4" x1="20" y1="43.5" x2="23" y2="43.5"/>
          </g>
          <g>
            <polygon class="cls-5" points="37.4 5.6 37.2 8.5 36.9 17.4 36.6 24 31.5 24 31.1 14.2 30.7 5.6 37.4 5.6"/>
            <path class="cls-5" d="M37.5,29.7a3.3,3.3,0,0,1-1,2.3.5.5,0,0,1-.4.2H36a2.9,2.9,0,0,1-1.4.5H34c-.1,0-.2,0-.2-.1a3.6,3.6,0,0,1-2.3-.8,3.3,3.3,0,0,1-1-2.3,3,3,0,0,1,1-2.2l.4-.3a3.7,3.7,0,0,1,2.1-.6h1.5a2.1,2.1,0,0,1,1,.6A3,3,0,0,1,37.5,29.7Z"/>
          </g>
        </g>
      </g>
      <g id="Shadow" class="cls-6">
        <path d="M16.5,8.7h0l-1.8-.2h0Z"/>
        <path d="M16.6,8.7h0Z"/>
        <path d="M27.1,47.3h-5A8.1,8.1,0,0,1,16.5,55a6.9,6.9,0,0,0,2.5.4A8.1,8.1,0,0,0,27.1,47.3Z"/>
        <path d="M34.7,39.7h-5l2.1,4.5a2.2,2.2,0,0,1-2,3.1h5a2.2,2.2,0,0,0,2-3.1Z"/>
        <path d="M22.1,2.3a4.3,4.3,0,0,0-5.6-.5l.6.5a4.1,4.1,0,0,1,1.2,3V9.1h0A20.2,20.2,0,0,1,25.1,13c4,4,4.5,10.3,4.5,11a3.3,3.3,0,0,0,2-.6c.7-.7.8-1.6.6-3.3a20.2,20.2,0,0,0-1.5-6.4,14.6,14.6,0,0,0-7.4-4.6h0V5.3A4.1,4.1,0,0,0,22.1,2.3ZM19.3,8.5l2.3.2Z"/>
        <path d="M36.6,24l.3-6.6.3-8.9.2-2.9h-5l-.2,2.9-.3,8.9L31.6,24h-2V39.7h5V32.8a2.9,2.9,0,0,0,1.4-.5h.1a.5.5,0,0,0,.4-.2,3.3,3.3,0,0,0,1-2.3,3,3,0,0,0-1-2.2,2.1,2.1,0,0,0-1-.6h-.9V24Z"/>
      </g>
      <g id="Highlight" class="cls-7">
        <path class="cls-8" d="M3.2,47.3h5a2.2,2.2,0,0,1-2-3.1l2.1-4.5h-5L1.2,44.2A2.2,2.2,0,0,0,3.2,47.3Z"/>
        <path class="cls-8" d="M19,55.4a6.9,6.9,0,0,0,2.5-.4,8.1,8.1,0,0,1-5.6-7.7h-5A8.1,8.1,0,0,0,19,55.4Z"/>
        <path class="cls-8" d="M21.5,8.7l1.6-.2-1.6.2Z"/>
        <path class="cls-8" d="M21.5,8.7h0Z"/>
        <path class="cls-8" d="M14.7,5.3V9.1a15.5,15.5,0,0,0-11.3,15V39.7h5V24.1a15.5,15.5,0,0,1,11.3-15V8.5h0V5.3a4.4,4.4,0,0,1,1.8-3.5A4.4,4.4,0,0,0,19,1,4.3,4.3,0,0,0,14.7,5.3Zm.9,3.5,2.5-.3Z"/>
      </g>
      <g id="Line">
        <g>
          <path class="cls-9" d="M31.5,27.5a3,3,0,0,0-1,2.2,3.3,3.3,0,0,0,1,2.3,3.6,3.6,0,0,0,2.3.8c0,.1.1.1.2.1h.6v6.9H3.4V24.1A15.6,15.6,0,0,1,19,8.5a14.9,14.9,0,0,1,4.3.6A16,16,0,0,1,30.1,13l1,1.2.4,9.8h3.1v2.7H34a3.7,3.7,0,0,0-2.1.6Z"/>
          <path class="cls-9" d="M34.8,47.3H3.2a2.2,2.2,0,0,1-2-3.1l2.1-4.5H34.7l2.1,4.5A2.2,2.2,0,0,1,34.8,47.3Z"/>
          <path class="cls-9" d="M23.3,5.3V9.1A14.9,14.9,0,0,0,19,8.5a14.9,14.9,0,0,0-4.3.6V5.3A4.3,4.3,0,0,1,19,1a4.4,4.4,0,0,1,3.1,1.3A4.1,4.1,0,0,1,23.3,5.3Z"/>
          <path class="cls-9" d="M27.1,47.3a8.1,8.1,0,0,1-16.2,0Z"/>
          <g>
            <line class="cls-9" x1="7.4" y1="43.5" x2="16.2" y2="43.5"/>
            <line class="cls-9" x1="20" y1="43.5" x2="23" y2="43.5"/>
          </g>
          <g>
            <polygon class="cls-9" points="37.4 5.6 37.2 8.5 36.9 17.4 36.6 24 31.5 24 31.1 14.2 30.7 5.6 37.4 5.6"/>
            <path class="cls-9" d="M37.5,29.7a3.3,3.3,0,0,1-1,2.3.5.5,0,0,1-.4.2H36a2.9,2.9,0,0,1-1.4.5H34c-.1,0-.2,0-.2-.1a3.6,3.6,0,0,1-2.3-.8,3.3,3.3,0,0,1-1-2.3,3,3,0,0,1,1-2.2l.4-.3a3.7,3.7,0,0,1,2.1-.6h1.5a2.1,2.1,0,0,1,1,.6A3,3,0,0,1,37.5,29.7Z"/>
          </g>
        </g>
      </g>
    </g>
  </g>
</svg>
